<svg xmlns="http://www.w3.org/2000/svg" width="720" height="80" viewBox="0 0 720 80" role="img" aria-label="Last seen at my desk">
  <defs>
    <linearGradient id="bg" x1="0%" y1="0%" x2="100%" y2="100%">
      <stop offset="0%" stop-color="#0E2A47"/>
      <stop offset="100%" stop-color="#173B5C"/>
    </linearGradient>
    <pattern id="grid" width="20" height="20" patternUnits="userSpaceOnUse">
      <path d="M 20 0 L 0 0 0 20" fill="none" stroke="#5BC0EB" stroke-width="0.4" opacity="0.25"/>
    </pattern>
  </defs>
  <rect width="720" height="80" rx="6" fill="url(#bg)"/>
  <rect width="720" height="80" rx="6" fill="url(#grid)"/>

  <rect x="0" y="0" width="3" height="80" fill="#5BC0EB"/>

  <text x="24" y="30" font-family="'Courier New', 'Lucida Console', monospace" font-size="10" fill="#5BC0EB" letter-spacing="2.5">LAST SEEN AT MY DESK</text>

  <text x="24" y="60" font-family="'Courier New', 'Lucida Console', monospace" font-size="24" font-weight="700" fill="#E8F1FA"><!-- LAST_SEEN_START -->13 days ago<!-- LAST_SEEN_END --></text>

  <svg x="660" y="20" width="40" height="40" viewBox="0 0 24 24" fill="none" stroke="#5BC0EB" stroke-width="1.8" stroke-linecap="round" stroke-linejoin="round">
    <path d="M10 2v2"/>
    <path d="M14 2v2"/>
    <path d="M16 8a1 1 0 0 1 1 1v8a4 4 0 0 1-4 4H7a4 4 0 0 1-4-4V9a1 1 0 0 1 1-1h14a4 4 0 1 1 0 8h-1"/>
    <path d="M6 2v2"/>
  </svg>
</svg>
